<svg width="512" height="512" xmlns="http://www.w3.org/2000/svg">
 <!--! Font Awesome Pro 6.2.0 by @fontawesome - https://fontawesome.com License - https://fontawesome.com/license (Commercial License) Copyright 2022 Fonticons, Inc. -->

 <g>
  <title>Layer 1</title>
  <path fill="#269abc" d="m256,512c141.4,0 256,-114.6 256,-256s-114.6,-256 -256,-256s-256,114.6 -256,256s114.6,256 256,256zm-40,-176l24,0l0,-64l-24,0c-13.3,0 -24,-10.7 -24,-24s10.7,-24 24,-24l48,0c13.3,0 24,10.7 24,24l0,88l8,0c13.3,0 24,10.7 24,24s-10.7,24 -24,24l-80,0c-13.3,0 -24,-10.7 -24,-24s10.7,-24 24,-24zm40,-144c-17.7,0 -32,-14.3 -32,-32s14.3,-32 32,-32s32,14.3 32,32s-14.3,32 -32,32z" id="svg_1"/>
 </g>
</svg>