<svg width="512" height="512" xmlns="http://www.w3.org/2000/svg">
 <!--! Font Awesome Pro 6.2.0 by @fontawesome - https://fontawesome.com License - https://fontawesome.com/license (Commercial License) Copyright 2022 Fonticons, Inc. -->

 <g>
  <title>Layer 1</title>
  <path id="svg_1" d="m256,512c141.4,0 256,-114.6 256,-256s-114.6,-256 -256,-256s-256,114.6 -256,256s114.6,256 256,256zm0,-384c13.3,0 24,10.7 24,24l0,112c0,13.3 -10.7,24 -24,24s-24,-10.7 -24,-24l0,-112c0,-13.3 10.7,-24 24,-24zm32,224c0,17.7 -14.3,32 -32,32s-32,-14.3 -32,-32s14.3,-32 32,-32s32,14.3 32,32z" fill="#d3080c"/>
 </g>
</svg>