<svg width="512" height="512" xmlns="http://www.w3.org/2000/svg">
 <!--! Font Awesome Pro 6.2.0 by @fontawesome - https://fontawesome.com License - https://fontawesome.com/license (Commercial License) Copyright 2022 Fonticons, Inc. -->

 <g>
  <title>Layer 1</title>
  <path fill="#ee7100" d="m256,32c14.2,0 27.3,7.5 34.5,19.8l216,368c7.3,12.4 7.3,27.7 0.2,40.1s-20.4,20.1 -34.7,20.1l-432,0c-14.3,0 -27.6,-7.7 -34.7,-20.1s-7,-27.8 0.2,-40.1l216,-368c7.2,-12.3 20.3,-19.8 34.5,-19.8zm0,128c-13.3,0 -24,10.7 -24,24l0,112c0,13.3 10.7,24 24,24s24,-10.7 24,-24l0,-112c0,-13.3 -10.7,-24 -24,-24zm32,224c0,-17.7 -14.3,-32 -32,-32s-32,14.3 -32,32s14.3,32 32,32s32,-14.3 32,-32z" id="svg_1"/>
 </g>
</svg>