<svg width="512" height="512" xmlns="http://www.w3.org/2000/svg">
 <!--! Font Awesome Pro 6.2.0 by @fontawesome - https://fontawesome.com License - https://fontawesome.com/license (Commercial License) Copyright 2022 Fonticons, Inc. -->

 <g>
  <title>Layer 1</title>
  <path fill="#278400" d="m256,512c141.4,0 256,-114.6 256,-256s-114.6,-256 -256,-256s-256,114.6 -256,256s114.6,256 256,256zm113,-303l-128,128c-9.4,9.4 -24.6,9.4 -33.9,0l-64,-64c-9.4,-9.4 -9.4,-24.6 0,-33.9s24.6,-9.4 33.9,0l47,47l111,-111.1c9.4,-9.4 24.6,-9.4 33.9,0s9.4,24.6 0,33.9l0.1,0.1z" id="svg_1"/>
 </g>
</svg>