<svg id="GoC_-_Signature_-_EN" data-name="GoC - Signature - EN" xmlns="http://www.w3.org/2000/svg" width="360" height="34" viewBox="0 0 360 34">
  <path id="Path_5247" data-name="Path 5247" d="M66.612,33.5h-16.7V.349h16.7ZM33.39,2.886s-2.024,4.06-2.361,4.4c-.337.507-.506.507-1.012.338-.506-.338-2.192-1.184-2.192-1.184s1.518,6.6,1.518,7.1c.169.507-.337,1.015-1.012.507-.169-.169-3.036-3.383-3.036-3.383s-.674,1.522-.843,1.861-.337.508-.675.338c-.506-.169-3.2-.677-3.2-.677s1.012,3.214,1.181,3.721c.169.338.337.677-.337,1.015l-1.012.338s5.565,4.906,5.734,5.075c.337.338.506.338.337,1.184a10.509,10.509,0,0,0-.506,1.861S31.2,24.2,31.7,24.2s1.012.169,1.012.677-.337,6.259-.337,6.259h1.686s-.337-5.582-.337-6.259c0-.507.506-.677,1.012-.677.506.169,5.734,1.184,5.734,1.184s-.337-1.184-.506-1.861c-.337-.846,0-1.015.337-1.184.169-.169,5.734-5.075,5.734-5.075l-1.012-.338c-.506-.338-.337-.677-.337-1.015.169-.338,1.18-3.721,1.18-3.721s-2.7.507-3.2.677c-.337.169-.506-.169-.675-.338-.169-.338-.843-1.861-.843-1.861s-2.867,3.383-3.035,3.383c-.506.338-1.181,0-1.012-.507,0-.507,1.518-7.1,1.518-7.1a22.048,22.048,0,0,1-2.192,1.184c-.337.338-.675.338-1.012-.338A36.683,36.683,0,0,0,33.39,2.886ZM16.7,33.5V.349H0V33.5Z" fill="red"/>
  <path id="Path_5248" data-name="Path 5248" d="M107.885,13.871h-1.518l-.337-1.522a4.614,4.614,0,0,1-4.047,1.861c-4.048,0-6.408-3.214-6.408-7.1C95.406,3.214,97.767,0,101.814,0c3.036,0,5.4,1.522,5.734,4.567h-2.361c-.169-1.861-1.855-2.706-3.541-2.706C98.779,1.861,97.6,4.4,97.6,7.1c0,2.537,1.181,5.244,4.048,5.244,2.361,0,3.71-1.353,3.878-3.721h-3.541V6.766h5.9Zm1.855-4.905c0-3.045,1.855-5.244,4.891-5.244s4.89,2.2,4.89,5.244-1.855,5.244-4.89,5.244S109.74,12.01,109.74,8.965Zm7.589,0c0-1.692-.843-3.383-2.867-3.383S111.6,7.274,111.6,8.965s.843,3.552,2.867,3.552S117.329,10.657,117.329,8.965Zm3.035-4.905h2.361l2.53,7.612,2.361-7.612h2.192l-3.373,9.811h-2.36Zm12.48,5.413a2.612,2.612,0,0,0,2.7,2.876,2.207,2.207,0,0,0,2.361-1.692h2.024a4.331,4.331,0,0,1-4.385,3.383c-3.036,0-4.722-2.2-4.722-5.244,0-2.876,1.855-5.244,4.722-5.244A4.787,4.787,0,0,1,140.1,9.3h-7.251ZM137.9,8.119a2.53,2.53,0,1,0-5.059,0Zm3.879-4.06H143.8V5.92a3.132,3.132,0,0,1,2.867-2.2h.843v2.03c-.337,0-.674-.169-1.012-.169-1.517,0-2.7,1.184-2.7,3.383V13.7h-2.192V4.06Zm7.082,0h2.024V5.582a3.54,3.54,0,0,1,3.036-1.692c2.192,0,3.541,1.184,3.541,3.383V14.04h-2.192V7.781c0-1.522-.675-2.2-1.855-2.2a2.35,2.35,0,0,0-2.361,2.537v5.751h-2.193Zm10.793,0h2.024V5.413a3.339,3.339,0,0,1,3.035-1.692,2.6,2.6,0,0,1,2.7,1.692,3.538,3.538,0,0,1,3.035-1.692c2.024,0,3.2.846,3.2,3.383v6.766h-2.192V8.119c0-1.522-.169-2.706-1.855-2.706-1.518,0-2.024,1.015-2.024,2.706v5.751h-2.192V7.612c0-1.353-.337-2.03-1.686-2.03a2.234,2.234,0,0,0-2.193,2.537v5.92H159.32V4.06ZM177.87,9.473a2.612,2.612,0,0,0,2.7,2.876,2.206,2.206,0,0,0,2.361-1.692h2.024a4.331,4.331,0,0,1-4.385,3.383c-3.035,0-4.721-2.2-4.721-5.244,0-2.876,1.855-5.244,4.721-5.244A4.787,4.787,0,0,1,185.122,9.3H177.87Zm5.059-1.353a2.53,2.53,0,1,0-5.059,0Zm3.879-4.06h2.024V5.582a3.538,3.538,0,0,1,3.035-1.692c2.193,0,3.542,1.184,3.542,3.383V14.04h-2.193V7.781c0-1.522-.674-2.2-1.855-2.2A2.351,2.351,0,0,0,189,8.119v5.751h-2.192Zm9.95,0h1.686V1.184h2.192V4.06h2.024V5.751h-2.024v5.244c0,.846,0,1.353,1.012,1.353h.844V14.04c-.506,0-1.012.169-1.35.169-2.192,0-2.7-.846-2.7-2.537V5.751h-1.686ZM95.237,28.587c0-3.045,1.855-5.244,4.891-5.244,3.2,0,4.89,2.2,4.89,5.244s-1.855,5.244-4.89,5.244S95.237,31.632,95.237,28.587Zm7.758,0c0-1.692-.844-3.383-2.867-3.383-1.855,0-2.867,1.691-2.867,3.383s.843,3.552,2.867,3.552S103,30.279,103,28.587Zm3.035-4.905h1.687v-.846c0-2.537,1.349-2.876,2.7-2.876a3.736,3.736,0,0,1,1.518.169v1.691c-.338,0-.506-.169-1.012-.169a.889.889,0,0,0-1.012,1.015v1.015h1.855v1.691h-1.855v8.289h-2.192V25.373H106.03Zm21.586.507a3.192,3.192,0,0,0-3.373-2.707c-2.867,0-4.047,2.537-4.047,5.244,0,2.537,1.18,5.244,4.047,5.244,2.024,0,3.2-1.522,3.373-3.552h2.361a5.419,5.419,0,0,1-5.734,5.413c-4.047,0-6.408-3.214-6.408-7.1s2.361-7.1,6.408-7.1c3.036,0,5.4,1.691,5.734,4.567Zm12.479,7.1c0,.507.169.677.506.677h.506v1.522a3.7,3.7,0,0,1-1.349.169,1.512,1.512,0,0,1-1.686-1.184,4.855,4.855,0,0,1-3.373,1.184c-1.687,0-3.373-1.015-3.373-2.876,0-2.537,2.024-2.876,3.71-3.045,1.518-.338,2.867-.169,2.867-1.353s-1.181-1.353-2.024-1.353c-1.18,0-2.023.507-2.192,1.522h-2.192c.168-2.537,2.361-3.214,4.384-3.214,1.855,0,3.879.846,3.879,2.876v5.075Zm-2.023-2.706c-.675.507-1.687.338-2.7.507s-1.686.507-1.686,1.692c0,1.015,1.18,1.184,2.024,1.184,1.011,0,2.361-.507,2.361-1.861Zm4.384-4.905h2.024V25.2a3.538,3.538,0,0,1,3.035-1.692c2.193,0,3.542,1.184,3.542,3.383v6.766h-2.193V27.4c0-1.522-.674-2.2-1.855-2.2a2.351,2.351,0,0,0-2.361,2.537v5.751h-2.192Zm18.888,7.612c0,.507.168.677.506.677h.506v1.522a3.706,3.706,0,0,1-1.35.169,1.513,1.513,0,0,1-1.686-1.184,4.851,4.851,0,0,1-3.373,1.184c-1.686,0-3.373-1.015-3.373-2.876,0-2.537,2.024-2.876,3.711-3.045,1.517-.338,2.866-.169,2.866-1.353s-1.18-1.353-2.023-1.353c-1.181,0-2.024.507-2.193,1.522h-2.192c.169-2.537,2.361-3.214,4.385-3.214,1.855,0,3.878.846,3.878,2.876v5.075Zm-2.193-2.706c-.674.507-1.686.338-2.7.507s-1.686.507-1.686,1.692c0,1.015,1.18,1.184,2.023,1.184,1.012,0,2.361-.507,2.361-1.861Zm13.66,4.905h-2.024V32.139a3.078,3.078,0,0,1-3.035,1.522c-3.036,0-4.553-2.368-4.553-5.244,0-3.552,2.192-5.075,4.216-5.075a3.913,3.913,0,0,1,3.2,1.522V19.791h2.192Zm-4.722-1.353c1.855,0,2.7-1.692,2.7-3.552,0-2.2-1.011-3.383-2.7-3.383-2.023,0-2.7,1.861-2.7,3.552S166.234,32.139,168.089,32.139Zm15.346-.846c0,.507.169.677.506.677h.506v1.522a3.7,3.7,0,0,1-1.349.169,1.512,1.512,0,0,1-1.686-1.184,4.855,4.855,0,0,1-3.373,1.184c-1.686,0-3.373-1.015-3.373-2.876,0-2.537,2.024-2.876,3.71-3.045,1.518-.338,2.867-.169,2.867-1.353s-1.18-1.353-2.024-1.353c-1.18,0-2.023.507-2.192,1.522h-2.192c.168-2.537,2.361-3.214,4.384-3.214,1.855,0,3.879.846,3.879,2.876v5.075Zm-2.192-2.706c-.675.507-1.686.338-2.7.507s-1.687.507-1.687,1.692c0,1.015,1.181,1.184,2.024,1.184,1.012,0,2.361-.507,2.361-1.861Zm63.071-14.716H242.8l-.337-1.522a4.614,4.614,0,0,1-4.047,1.861c-4.048,0-6.409-3.214-6.409-7.1S234.364,0,238.412,0c3.035,0,5.4,1.522,5.733,4.567h-2.361c-.168-1.861-1.855-2.706-3.541-2.706-2.867,0-4.047,2.537-4.047,5.244,0,2.537,1.18,5.244,4.047,5.244,2.361,0,3.71-1.353,3.879-3.721H238.58V6.766h5.734Zm2.024-4.905c0-3.045,1.855-5.244,4.89-5.244s4.891,2.2,4.891,5.244-1.855,5.244-4.891,5.244S246.338,12.01,246.338,8.965Zm7.588,0c0-1.692-.843-3.383-2.867-3.383-1.855,0-2.866,1.692-2.866,3.383s.843,3.552,2.866,3.552S253.926,10.657,253.926,8.965Zm12.648,4.905h-2.192V12.517a3.262,3.262,0,0,1-2.867,1.692c-2.53,0-3.71-1.353-3.71-3.891V4.06H260v6.09c0,1.692.675,2.368,1.855,2.368,1.855,0,2.361-1.184,2.361-2.706V4.06h2.193Zm1.349-9.811h2.361l2.53,7.612,2.361-7.612h2.192l-3.541,9.811h-2.361Zm12.142,5.413a2.612,2.612,0,0,0,2.7,2.876,2.206,2.206,0,0,0,2.36-1.692h2.024a4.331,4.331,0,0,1-4.384,3.383c-3.036,0-4.722-2.2-4.722-5.244,0-2.876,1.855-5.244,4.722-5.244A4.787,4.787,0,0,1,287.317,9.3h-7.252Zm5.059-1.353a2.53,2.53,0,1,0-5.059,0ZM289,4.06h2.024V5.92a3.131,3.131,0,0,1,2.867-2.2h.843v2.03c-.337,0-.675-.169-1.012-.169-1.518,0-2.7,1.184-2.7,3.383V13.7h-2.192Zm6.746,0h2.023V5.582a3.541,3.541,0,0,1,3.036-1.692c2.192,0,3.541,1.184,3.541,3.383V14.04h-2.192V7.781c0-1.522-.675-2.2-1.855-2.2a2.35,2.35,0,0,0-2.361,2.537v5.751h-2.192ZM308.4,9.473a2.612,2.612,0,0,0,2.7,2.876,2.208,2.208,0,0,0,2.361-1.692h2.023A4.33,4.33,0,0,1,311.1,14.04c-3.036,0-4.722-2.2-4.722-5.244,0-2.876,1.855-5.244,4.722-5.244A4.787,4.787,0,0,1,315.648,9.3H308.4Zm5.059-1.353a2.53,2.53,0,1,0-5.059,0Zm3.71-4.06h2.023V5.413a3.34,3.34,0,0,1,3.036-1.692,2.6,2.6,0,0,1,2.7,1.692,3.541,3.541,0,0,1,3.036-1.692c2.023,0,3.2.846,3.2,3.383v6.766h-2.192V8.119c0-1.522-.169-2.706-1.856-2.706-1.517,0-2.023,1.015-2.023,2.706v5.751H322.9V7.612c0-1.353-.338-2.03-1.687-2.03a2.234,2.234,0,0,0-2.192,2.537v5.92h-2.192V4.06Zm18.213,5.413a2.612,2.612,0,0,0,2.7,2.876,2.207,2.207,0,0,0,2.361-1.692h2.024a4.331,4.331,0,0,1-4.385,3.383c-3.035,0-4.722-2.2-4.722-5.244,0-2.876,1.855-5.244,4.722-5.244A4.787,4.787,0,0,1,342.63,9.3h-7.251Zm5.059-1.353a2.53,2.53,0,1,0-5.059,0Zm3.879-4.06h2.023V5.582a3.541,3.541,0,0,1,3.036-1.692c2.192,0,3.541,1.184,3.541,3.383V14.04h-2.192V7.781c0-1.522-.675-2.2-1.855-2.2a2.35,2.35,0,0,0-2.361,2.537v5.751h-2.192Zm9.781,0h1.686V1.184h2.192V4.06H360V5.751h-2.024v5.244c0,.846,0,1.353,1.012,1.353h.843V14.04c-.506,0-1.011.169-1.349.169-2.192,0-2.7-.846-2.7-2.537V5.751H354.1ZM241.447,33.493h-2.024V32.139a3.079,3.079,0,0,1-3.035,1.522c-3.036,0-4.553-2.368-4.553-5.244,0-3.552,2.023-5.075,4.216-5.075a3.913,3.913,0,0,1,3.2,1.522V19.791h2.192Zm-4.89-1.353c1.855,0,2.7-1.692,2.7-3.552,0-2.2-1.012-3.383-2.7-3.383-2.024,0-2.7,1.861-2.7,3.552S234.7,32.139,236.557,32.139Zm15.852,1.353h-2.193V32.139a3.262,3.262,0,0,1-2.867,1.691c-2.529,0-3.71-1.353-3.71-3.89V23.682h2.193v6.089c0,1.692.674,2.368,1.855,2.368,1.855,0,2.361-1.184,2.361-2.707V23.682h2.192v9.811Zm17.032-9.3a3.192,3.192,0,0,0-3.373-2.707c-2.867,0-4.047,2.537-4.047,5.244,0,2.537,1.18,5.244,4.047,5.244,2.193,0,3.2-1.522,3.373-3.552H271.8A5.658,5.658,0,0,1,266.068,34c-4.047,0-6.408-3.214-6.408-7.1s2.361-7.1,6.408-7.1c3.036,0,5.4,1.692,5.734,4.567h-2.361Zm12.311,7.1c0,.507.168.677.506.677h.506v1.522a3.706,3.706,0,0,1-1.35.169,1.513,1.513,0,0,1-1.686-1.184,4.851,4.851,0,0,1-3.373,1.184c-1.686,0-3.373-1.015-3.373-2.876,0-2.537,2.024-2.876,3.711-3.045,1.517-.338,2.866-.169,2.866-1.353s-1.18-1.353-2.023-1.353c-1.181,0-2.024.507-2.193,1.522h-2.192c.169-2.537,2.361-3.214,4.385-3.214,1.855,0,3.878.846,3.878,2.876v5.075Zm-2.193-2.706c-.674.507-1.686.338-2.7.507s-1.686.507-1.686,1.692c0,1.015,1.18,1.184,2.023,1.184,1.012,0,2.361-.507,2.361-1.861Zm4.722-4.905H286.3V25.2a3.538,3.538,0,0,1,3.035-1.692c2.193,0,3.542,1.184,3.542,3.383v6.766H290.69V27.4c0-1.522-.675-2.2-1.855-2.2a2.351,2.351,0,0,0-2.361,2.537v5.751h-2.193ZM303,31.294c0,.507.169.677.506.677h.506v1.522a3.7,3.7,0,0,1-1.349.169,1.512,1.512,0,0,1-1.686-1.184,4.855,4.855,0,0,1-3.373,1.184c-1.687,0-3.373-1.015-3.373-2.876,0-2.537,2.024-2.876,3.71-3.045,1.518-.338,2.867-.169,2.867-1.353s-1.181-1.353-2.024-1.353c-1.18,0-2.023.507-2.192,1.522H294.4c.168-2.537,2.361-3.214,4.384-3.214,1.855,0,3.879.846,3.879,2.876v5.075Zm-2.192-2.706c-.675.507-1.687.338-2.7.507s-1.687.507-1.687,1.692c0,1.015,1.181,1.184,2.024,1.184,1.012,0,2.361-.507,2.361-1.861Zm13.828,4.905h-2.023V32.139a3.08,3.08,0,0,1-3.036,1.522c-3.035,0-4.553-2.368-4.553-5.244,0-3.552,2.192-5.075,4.216-5.075a3.913,3.913,0,0,1,3.2,1.522V19.791h2.192Zm-4.89-1.353c1.855,0,2.7-1.692,2.7-3.552,0-2.2-1.012-3.383-2.7-3.383-2.024,0-2.7,1.861-2.7,3.552S307.891,32.139,309.746,32.139Zm15.346-.846c0,.507.168.677.506.677h.506v1.522a3.7,3.7,0,0,1-1.349.169,1.513,1.513,0,0,1-1.687-1.184,4.851,4.851,0,0,1-3.373,1.184c-1.686,0-3.372-1.015-3.372-2.876,0-2.537,2.023-2.876,3.71-3.045,1.517-.338,2.867-.169,2.867-1.353s-1.181-1.353-2.024-1.353c-1.181,0-2.024.507-2.192,1.522h-2.193c.169-2.537,2.361-3.214,4.385-3.214,1.855,0,3.879.846,3.879,2.876v5.075ZM322.9,28.587c-.675.507-1.687.338-2.7.507s-1.686.507-1.686,1.692c0,1.015,1.18,1.184,2.024,1.184,1.011,0,2.361-.507,2.361-1.861Z"/>
</svg>
