<svg id="Icon_awesome-user-circle" data-name="Icon awesome-user-circle" xmlns="http://www.w3.org/2000/svg" width="36" height="36" viewBox="0 0 36 36">
  <path id="Icon_awesome-user-circle-2" data-name="Icon awesome-user-circle" d="M18,.563a18,18,0,1,0,18,18A18,18,0,0,0,18,.563ZM18,7.53a6.387,6.387,0,1,1-6.387,6.387A6.387,6.387,0,0,1,18,7.53ZM18,32.5a13.908,13.908,0,0,1-10.633-4.95,8.092,8.092,0,0,1,7.149-4.34,1.776,1.776,0,0,1,.515.08,9.61,9.61,0,0,0,2.969.5,9.573,9.573,0,0,0,2.969-.5,1.776,1.776,0,0,1,.515-.08,8.092,8.092,0,0,1,7.149,4.34A13.908,13.908,0,0,1,18,32.5Z" transform="translate(0 -0.563)" fill="#333"/>
</svg>
