<svg width="122.88" height="122.88" xmlns="http://www.w3.org/2000/svg" version="1.1" enable-background="new 0 0 122.88 122.88" xml:space="preserve">
 <g>
  <title>Layer 1</title>
  <g id="svg_1">
   <path fill="#269abc" fill-rule="evenodd" clip-rule="evenodd" d="m61.44,0c33.926,0 61.44,27.514 61.44,61.44c0,33.926 -27.514,61.439 -61.44,61.439c-33.927,0.001 -61.44,-27.513 -61.44,-61.439c0,-33.926 27.513,-61.44 61.44,-61.44l0,0zm17.98,98.215l-35.96,0l0,-6.053l6.757,0l0,-36.96l-6.757,0l0,-4.816l16.808,0c4.245,0 8.422,-0.51 12.549,-1.551l0,43.328l6.604,0l0,6.052l-0.001,0zm-15.561,-77.137c2.785,0 4.975,0.805 6.571,2.396c1.579,1.59 2.377,3.771 2.377,6.581c0,2.848 -1.358,5.381 -4.093,7.601c-2.751,2.22 -5.941,3.338 -9.577,3.338c-2.733,0 -4.905,-0.765 -6.569,-2.297c-1.665,-1.551 -2.497,-3.556 -2.497,-6.05c0,-3.143 1.358,-5.853 4.059,-8.152c2.7,-2.276 5.942,-3.417 9.729,-3.417l0,0z" id="svg_2"/>
  </g>
 </g>

</svg>